<svg xmlns="http://www.w3.org/2000/svg" width="1200" height="630" viewBox="0 0 1200 630" role="img" aria-labelledby="title description">
  <title id="title">刘柏希 / Cyril Liu</title>
  <desc id="description">PMO, Program and Portfolio Management</desc>
  <rect width="1200" height="630" fill="#eef5fb"/>
  <g stroke="#bfd2e5" stroke-width="1" opacity="0.7">
    <path d="M0 105h1200M0 210h1200M0 315h1200M0 420h1200M0 525h1200"/>
    <path d="M120 0v630M240 0v630M360 0v630M480 0v630M600 0v630M720 0v630M840 0v630M960 0v630M1080 0v630"/>
  </g>
  <rect x="72" y="72" width="74" height="74" rx="14" fill="#ffffff" stroke="#9db9d6" stroke-width="2"/>
  <text x="109" y="120" fill="#102033" font-family="Arial, sans-serif" font-size="28" font-weight="700" text-anchor="middle">CL</text>
  <text x="178" y="118" fill="#102033" font-family="Arial, 'PingFang SC', sans-serif" font-size="34" font-weight="700">刘柏希 / Cyril Liu</text>
  <text x="72" y="300" fill="#102033" font-family="Arial, 'PingFang SC', sans-serif" font-size="82" font-weight="700">把复杂项目带到清晰交付</text>
  <text x="72" y="382" fill="#2f6de6" font-family="Arial, sans-serif" font-size="34" font-weight="700">PMO · PROGRAM &amp; PORTFOLIO MANAGEMENT</text>
  <text x="72" y="470" fill="#52677d" font-family="Arial, 'PingFang SC', sans-serif" font-size="28">方向 · 风险 · 资源 · 决策</text>
  <path d="M72 532h1056" stroke="#9db9d6" stroke-width="2"/>
  <text x="1128" y="578" fill="#52677d" font-family="Arial, sans-serif" font-size="24" text-anchor="end">baixi.xyz</text>
</svg>
