<svg xmlns="http://www.w3.org/2000/svg" viewBox="0 0 102 24" fill="none"><path fill-rule="evenodd" clip-rule="evenodd" d="M41.8777 9.2429L40.8548 9.89458C39.9712 8.69196 38.7654 8.09055 37.2374 8.09055C36.0163 8.09055 35.0023 8.49319 34.1954 9.29827C33.3885 10.1032 32.985 11.0813 32.985 12.2323C32.985 12.9807 33.1707 13.6853 33.5418 14.3456C33.9131 15.006 34.4224 15.5186 35.0698 15.8833C35.7172 16.2482 36.4428 16.4306 37.2467 16.4306C38.7194 16.4306 39.9221 15.8294 40.8548 14.6265L41.8777 15.3161C41.3985 16.0557 40.7549 16.6295 39.9471 17.0373C39.1393 17.445 38.2193 17.649 37.1872 17.649C35.6021 17.649 34.2874 17.1327 33.2431 16.1C32.1986 15.0673 31.6765 13.8113 31.6765 12.3314C31.6765 11.3366 31.9207 10.4125 32.4091 9.5593C32.8975 8.70615 33.5687 8.04028 34.4226 7.56169C35.2765 7.0832 36.2318 6.84375 37.2886 6.84375C37.9521 6.84375 38.5925 6.94768 39.21 7.15545C39.8274 7.36321 40.351 7.63404 40.7811 7.96773C41.211 8.30161 41.5766 8.72664 41.8777 9.2429Z" fill="#CBD2DD"></path><path fill-rule="evenodd" clip-rule="evenodd" d="M47.8375 8.13672C46.7648 8.13672 45.8429 8.54286 45.0724 9.35513C44.3017 10.1674 43.9165 11.1497 43.9165 12.302C43.9165 13.0451 44.092 13.7377 44.4436 14.38C44.7948 15.0222 45.2696 15.5181 45.8677 15.8675C46.4656 16.217 47.1223 16.3918 47.8375 16.3918C48.5525 16.3918 49.2091 16.217 49.8072 15.8675C50.4052 15.5181 50.88 15.0222 51.2313 14.38C51.5827 13.7377 51.7585 13.0451 51.7585 12.302C51.7585 11.1497 51.3715 10.1674 50.5979 9.35513C49.8241 8.54286 48.9039 8.13672 47.8375 8.13672ZM47.8441 6.84375C49.3888 6.84375 50.6688 7.41678 51.6844 8.56274C52.6074 9.60807 53.0691 10.8454 53.0691 12.2746C53.0691 13.7104 52.5813 14.965 51.6059 16.0386C50.6304 17.1122 49.3764 17.649 47.8441 17.649C46.3054 17.649 45.0484 17.1122 44.0731 16.0386C43.0975 14.965 42.6098 13.7104 42.6098 12.2746C42.6098 10.8518 43.0714 9.61756 43.9946 8.57223C45.0099 7.41988 46.2931 6.84375 47.8441 6.84375Z" fill="#CBD2DD"></path><path fill-rule="evenodd" clip-rule="evenodd" d="M54.6023 17.3856H55.8924V7.10938H54.6023V17.3856Z" fill="#CBD2DD"></path><path fill-rule="evenodd" clip-rule="evenodd" d="M57.9128 7.10818H59.2029V8.94999C59.7189 8.24485 60.2904 7.71749 60.917 7.36801C61.5436 7.01854 62.2255 6.84375 62.9628 6.84375C63.7122 6.84375 64.3773 7.03902 64.9578 7.42937C65.5384 7.81982 65.9669 8.34548 66.2434 9.00665C66.5198 9.66783 66.658 10.6974 66.658 12.0952V17.3845H65.368V12.4824C65.368 11.2988 65.3199 10.5084 65.2243 10.1117C65.0748 9.43168 64.7881 8.92021 64.3642 8.57693C63.9403 8.23385 63.3872 8.06216 62.7054 8.06216C61.9249 8.06216 61.2259 8.32659 60.6084 8.85555C59.9909 9.38441 59.5838 10.0394 59.3873 10.8202C59.2643 11.3302 59.2029 12.2622 59.2029 13.6159V17.3845H57.9128V7.10818Z" fill="#CBD2DD"></path><path fill-rule="evenodd" clip-rule="evenodd" d="M78.0921 15.875C78.3349 15.875 78.542 15.9628 78.7133 16.1385C78.8847 16.3142 78.9704 16.529 78.9704 16.7826C78.9704 17.0315 78.8847 17.245 78.7133 17.4231C78.542 17.6011 78.3349 17.6902 78.0921 17.6902C77.8492 17.6902 77.6421 17.6011 77.4708 17.4231C77.2994 17.245 77.2136 17.0315 77.2136 16.7826C77.2136 16.529 77.2994 16.3142 77.4708 16.1385C77.6421 15.9628 77.8492 15.875 78.0921 15.875Z" fill="#CBD2DD"></path><path fill-rule="evenodd" clip-rule="evenodd" d="M86.1334 8.11914C85.0178 8.11914 84.0786 8.51858 83.3154 9.31727C82.5523 10.1162 82.1709 11.11 82.1709 12.2985C82.1709 13.0785 82.3409 13.7799 82.6811 14.4025C83.0212 15.0251 83.5085 15.5188 84.1429 15.8835C84.7773 16.2484 85.4468 16.4308 86.1518 16.4308C86.8443 16.4308 87.4955 16.2469 88.1054 15.8788C88.7154 15.511 89.2011 14.9967 89.5627 14.3363C89.9243 13.6761 90.1051 12.9843 90.1051 12.2608C90.1051 11.5313 89.9257 10.8395 89.5672 10.1854C89.2086 9.53133 88.726 9.02336 88.1193 8.66169C87.5124 8.30012 86.8504 8.11914 86.1334 8.11914ZM80.9736 7.10828H82.2638V8.99726C82.7732 8.27942 83.3592 7.74117 84.0221 7.3822C84.6849 7.02323 85.4244 6.84375 86.2407 6.84375C87.6645 6.84375 88.8827 7.36961 89.8954 8.42113C90.908 9.47285 91.4144 10.7384 91.4144 12.2181C91.4144 13.7293 90.9126 15.0124 89.9091 16.0669C88.9058 17.1217 87.6952 17.649 86.2775 17.649C85.4796 17.649 84.7463 17.479 84.0773 17.139C83.4083 16.7989 82.8037 16.2922 82.2638 15.6183V21.1437H80.9736V7.10828Z" fill="#CBD2DD"></path><path fill-rule="evenodd" clip-rule="evenodd" d="M93.1667 3.24219H94.4568V9.05094C94.979 8.3458 95.5535 7.81844 96.1802 7.46896C96.8068 7.11949 97.4855 6.9447 98.2167 6.9447C98.9661 6.9447 99.6312 7.13997 100.212 7.53032C100.792 7.92077 101.221 8.44503 101.497 9.10301C101.774 9.76098 101.912 10.7921 101.912 12.1962V17.4854H100.622V12.5835C100.622 11.3997 100.576 10.6094 100.484 10.2127C100.324 9.53263 100.033 9.02116 99.6128 8.67798C99.1919 8.3348 98.6406 8.16311 97.9587 8.16311C97.1783 8.16311 96.4796 8.42764 95.8622 8.9566C95.2448 9.48546 94.8377 10.1403 94.6412 10.9211C94.5182 11.425 94.4568 12.3568 94.4568 13.7168V17.4854H93.1667V3.24219Z" fill="#CBD2DD"></path><path fill-rule="evenodd" clip-rule="evenodd" d="M55.2414 5.05875C54.9539 5.05875 54.7061 4.95181 54.4982 4.73755C54.2903 4.52369 54.1863 4.26866 54.1863 3.97255C54.1863 3.67024 54.2903 3.41211 54.4982 3.19805C54.7061 2.98398 54.9539 2.87695 55.2414 2.87695C55.535 2.87695 55.7859 2.98398 55.9938 3.19805C56.2017 3.41211 56.3058 3.67024 56.3058 3.97255C56.3058 4.26866 56.2017 4.52369 55.9938 4.73755C55.7859 4.95181 55.535 5.05875 55.2414 5.05875Z" fill="#EFA023"></path><path fill-rule="evenodd" clip-rule="evenodd" d="M71.7114 17.5628C70.9473 17.5628 70.1938 17.4015 69.472 17.0832C68.7668 16.7727 68.178 16.2817 67.7214 15.6234L68.823 14.8057C69.0888 15.2448 69.476 15.619 69.9746 15.9187C70.4919 16.2298 71.0688 16.3874 71.6894 16.3874C72.0134 16.3874 72.3267 16.3575 72.6205 16.2986C72.9179 16.2392 73.1821 16.1331 73.4063 15.9833C73.631 15.8335 73.8133 15.6393 73.9482 15.4063C74.0836 15.1725 74.1523 14.8792 74.1523 14.5346C74.1523 13.9752 73.8814 13.5498 73.3469 13.2702C72.8263 12.9985 72.0659 12.7419 71.0867 12.5074C70.7818 12.4347 70.4546 12.3426 70.1141 12.2335C69.7767 12.1257 69.4604 11.9653 69.1741 11.757C68.8884 11.5499 68.6495 11.2849 68.4638 10.9695C68.2791 10.6568 68.1856 10.2586 68.1856 9.78581C68.1856 9.26874 68.2868 8.82183 68.4864 8.45776C68.6863 8.0925 68.9581 7.7876 69.2941 7.55105C69.6304 7.3143 70.0199 7.13552 70.4519 7.01989C70.8848 6.90427 71.3382 6.8457 71.7992 6.8457C72.5044 6.8457 73.1983 7.0068 73.8616 7.32449C74.507 7.63399 75.0012 8.07281 75.3313 8.62915L74.2727 9.42494C74.0499 9.0171 73.7175 8.67682 73.2839 8.41279C72.8315 8.13817 72.3099 7.99896 71.7334 7.99896C71.4688 7.99896 71.1995 8.02894 70.9328 8.088C70.6645 8.14796 70.4229 8.2463 70.2147 8.38061C70.0044 8.51593 69.8331 8.69141 69.7054 8.90248C69.5769 9.11464 69.5117 9.36738 69.5117 9.65379C69.5117 10.1535 69.7187 10.5411 70.1267 10.8061C70.5249 11.0648 71.1578 11.2853 72.0084 11.4616C73.2083 11.7082 74.1052 12.0708 74.6741 12.5396C75.2369 13.004 75.5225 13.6382 75.5225 14.4248C75.5225 14.9995 75.4102 15.4906 75.1889 15.8843C74.9667 16.279 74.6728 16.6064 74.3152 16.8572C73.9564 17.109 73.5451 17.2914 73.0928 17.3992C72.6378 17.5077 72.173 17.5628 71.7114 17.5628Z" fill="#CBD2DD"></path><path d="M12 24C18.6274 24 24 18.6274 24 12C24 5.37257 18.6274 0 12 0C5.37257 0 0 5.37257 0 12C0 18.6274 5.37257 24 12 24Z" fill="#EAA131"></path><mask id="mask0_1219_1473" style="mask-type:alpha" maskUnits="userSpaceOnUse" x="1" y="1" width="22" height="22"><path d="M12.0236 22.3803C17.7504 22.3803 22.393 17.7378 22.393 12.011C22.393 6.28413 17.7504 1.6416 12.0236 1.6416C6.29675 1.6416 1.65423 6.28413 1.65423 12.011C1.65423 17.7378 6.29675 22.3803 12.0236 22.3803Z" fill="#D9D9D9"></path></mask><g mask="url(#mask0_1219_1473)"><path d="M13.4798 1.23731L16.4995 3.02632V-0.545166L13.4798 1.23731Z" fill="#1B6CC9"></path><path d="M16.4995 3.03047L13.4798 1.24146V4.81319L16.4995 3.03047Z" fill="#1D77D5"></path><path d="M13.4798 8.37135L16.4995 10.1604V6.58862L13.4798 8.37135Z" fill="#1C6AD3"></path><path d="M13.4798 11.9382L16.4995 13.7272V10.1555L13.4798 11.9382Z" fill="#1E65D3"></path><path d="M16.4995 10.1579L13.4798 8.3689V11.9406L16.4995 10.1579Z" fill="#1D6CDA"></path><path d="M16.5152 13.7279L13.4955 11.939V15.5107L16.5152 13.7279Z" fill="#1B60CC"></path><path d="M13.4955 15.5051L16.5152 17.2942V13.7224L13.4955 15.5051Z" fill="#2063C9"></path><path d="M16.5152 17.273L13.4955 15.4838V19.0555L16.5152 17.273Z" fill="#205EC0"></path><path d="M16.5152 20.843L13.4955 19.0537V22.6254L16.5152 20.843Z" fill="#205BC0"></path><path d="M13.4955 22.6262L16.5152 24.4152V20.8435L13.4955 22.6262Z" fill="#1B5AB6"></path><path d="M16.4995 6.59737L13.4798 4.80835V8.38005L16.4995 6.59737Z" fill="#196DD5"></path><path d="M16.4921 3.02393L19.5118 4.81319V1.24146L16.4921 3.02393Z" fill="#1B6CC9"></path><path d="M19.5118 1.24384L16.4921 -0.545166V3.02632L19.5118 1.24384Z" fill="#1963C0"></path><path d="M16.4921 6.57508L19.5118 8.36434V4.7926L16.4921 6.57508Z" fill="#1864C7"></path><path d="M16.4921 10.1514L19.5118 11.9406V8.3689L16.4921 10.1514Z" fill="#1C6FDB"></path><path d="M19.5244 8.36531L16.5047 6.57605V10.1477L19.5244 8.36531Z" fill="#1A69D0"></path><path d="M19.5244 11.9448L16.5047 10.1555V13.7272L19.5244 11.9448Z" fill="#1C68D9"></path><path d="M16.4921 13.7214L19.5118 15.5107V11.939L16.4921 13.7214Z" fill="#1F68D6"></path><path d="M16.5141 17.2946L19.5338 19.0836V15.5121L16.5141 17.2946Z" fill="#1F5CC2"></path><path d="M19.5338 15.5117L16.5141 13.7224V17.2942L19.5338 15.5117Z" fill="#1E61D2"></path><path d="M19.5338 19.0562L16.5141 17.2672V20.839L19.5338 19.0562Z" fill="#1E5DBE"></path><path d="M19.5338 22.6263L16.5141 20.8373V24.409L19.5338 22.6263Z" fill="#1B5AB6"></path><path d="M16.4921 20.8364L19.5118 22.6254V19.0537L16.4921 20.8364Z" fill="#1F5CC2"></path><path d="M19.5244 4.79815L16.5047 3.00916V6.58064L19.5244 4.79815Z" fill="#1B6CC9"></path><path d="M19.5138 4.8108L22.5335 6.59981V3.02808L19.5138 4.8108Z" fill="#1963C0"></path><path d="M19.5138 8.35877L22.5335 10.1477V6.57605L19.5138 8.35877Z" fill="#1B60C0"></path><path d="M19.5138 11.9382L22.5335 13.7272V10.1555L19.5138 11.9382Z" fill="#1B5EC0"></path><path d="M22.5335 10.1579L19.5138 8.3689V11.9406L22.5335 10.1579Z" fill="#1E62C0"></path><path d="M22.5335 13.7279L19.5138 11.939V15.5107L22.5335 13.7279Z" fill="#1B5DC6"></path><path d="M19.5138 15.5051L22.5335 17.2942V13.7224L19.5138 15.5051Z" fill="#1B58C5"></path><path d="M19.5138 19.075L22.5335 20.8642V17.2925L19.5138 19.075Z" fill="#1E58C3"></path><path d="M22.5335 17.3011L19.5138 15.5121V19.0836L22.5335 17.3011Z" fill="#1E58C3"></path><path d="M22.5335 20.8491L19.5138 19.0601V22.6318L22.5335 20.8491Z" fill="#1B4FAF"></path><path d="M22.5335 6.58162L19.5138 4.7926V8.36434L22.5335 6.58162Z" fill="#1963C0"></path><path d="M22.5335 3.03047L19.5138 1.24146V4.81319L22.5335 3.03047Z" fill="#1755C1"></path><path d="M13.4809 4.76972L10.4612 2.98071V6.55244L13.4809 4.76972Z" fill="#1B61CE"></path><path d="M13.4809 1.20295L10.4612 -0.58606V2.98566L13.4809 1.20295Z" fill="#186CC7"></path><path d="M10.4738 10.1199L13.4934 11.9091V8.3374L10.4738 10.1199Z" fill="#1E63D1"></path><path d="M10.4801 13.6962L13.4998 15.4854V11.9137L10.4801 13.6962Z" fill="#1D5AC0"></path><path d="M13.4998 11.9101L10.4801 10.1208V13.6925L13.4998 11.9101Z" fill="#1E63D1"></path><path d="M13.4998 15.4832L10.4801 13.694V17.2657L13.4998 15.4832Z" fill="#205BBD"></path><path d="M10.4801 17.2662L13.4998 19.0553V15.4838L10.4801 17.2662Z" fill="#1D50AB"></path><path d="M10.4801 20.8425L13.4998 22.6318V19.0601L10.4801 20.8425Z" fill="#1D5BC3"></path><path d="M13.4998 19.0562L10.4801 17.2672V20.839L13.4998 19.0562Z" fill="#1E4CB2"></path><path d="M13.4998 22.6325L10.4801 20.8435V24.4152L13.4998 22.6325Z" fill="#1A5BBD"></path><path d="M13.4872 8.34297L10.4675 6.55396V10.1255L13.4872 8.34297Z" fill="#1A61CB"></path><path d="M7.44254 4.76319L10.4622 6.55244V2.98071L7.44254 4.76319Z" fill="#1959C6"></path><path d="M7.44254 1.19641L10.4622 2.98566V-0.58606L7.44254 1.19641Z" fill="#165DBB"></path><path d="M10.4622 2.98029L7.44254 1.19104V4.76277L10.4622 2.98029Z" fill="#1457BC"></path><path d="M7.4583 8.34266L10.478 10.1317V6.56018L7.4583 8.34266Z" fill="#1B64D3"></path><path d="M7.4583 11.9035L10.478 13.6925V10.1208L7.4583 11.9035Z" fill="#1D64D1"></path><path d="M10.478 10.1264L7.4583 8.3374V11.9091L10.478 10.1264Z" fill="#1763D1"></path><path d="M10.4812 13.6995L7.46144 11.9105V15.4823L10.4812 13.6995Z" fill="#1D5ECC"></path><path d="M7.4583 15.4767L10.478 17.2657V13.694L7.4583 15.4767Z" fill="#1A4FC6"></path><path d="M7.4583 19.0497L10.478 20.839V17.2672L7.4583 19.0497Z" fill="#1D54BA"></path><path d="M10.4812 17.2728L7.46144 15.4838V19.0555L10.4812 17.2728Z" fill="#1C52BC"></path><path d="M10.478 20.843L7.4583 19.0537V22.6254L10.478 20.843Z" fill="#1B5ABF"></path><path d="M7.46144 22.626L10.4812 24.4152V20.8435L7.46144 22.626Z" fill="#1B5DBF"></path><path d="M10.478 6.55659L7.4583 4.76733V8.33907L10.478 6.55659Z" fill="#1959C6"></path><path d="M4.44283 6.55641L7.46254 8.34542V4.77368L4.44283 6.55641Z" fill="#185ECB"></path><path d="M4.44911 2.9895L7.46882 4.77849V1.20679L4.44911 2.9895Z" fill="#135CC0"></path><path d="M7.46882 4.77923L4.44911 2.99023V6.56195L7.46882 4.77923Z" fill="#1251BD"></path><path d="M4.44283 10.1201L7.46254 11.9091V8.3374L4.44283 10.1201Z" fill="#1D68D0"></path><path d="M4.44283 13.693L7.46254 15.4823V11.9105L4.44283 13.693Z" fill="#1D4DBE"></path><path d="M7.46254 11.9101L4.44283 10.1208V13.6925L7.46254 11.9101Z" fill="#1C5FCA"></path><path d="M7.46254 15.4832L4.44283 13.694V17.2657L7.46254 15.4832Z" fill="#1D4CBB"></path><path d="M4.44283 17.2662L7.46254 19.0553V15.4838L4.44283 17.2662Z" fill="#1D49BC"></path><path d="M4.44283 20.8425L7.46254 22.6316V19.0601L4.44283 20.8425Z" fill="#1D56BB"></path><path d="M7.46254 19.0565L4.44283 17.2672V20.839L7.46254 19.0565Z" fill="#1D53BB"></path><path d="M7.46254 8.3398L4.44283 6.55078V10.1225L7.46254 8.3398Z" fill="#1B65CE"></path><path d="M1.42422 8.34266L4.44391 10.0764V6.56018L1.42422 8.34266Z" fill="#1B5CC4"></path><path d="M1.42422 4.77273L4.44391 6.56195V2.99023L1.42422 4.77273Z" fill="#185FB8"></path><path d="M4.44391 6.56294L1.42422 4.77368V8.34542L4.44391 6.56294Z" fill="#144DAE"></path><path d="M1.42422 11.964L4.44391 13.753V10.0704L1.42422 11.964Z" fill="#1950BD"></path><path d="M1.42422 15.5445L4.44391 17.281V13.7035L1.42422 15.5445Z" fill="#1943A8"></path><path d="M4.44391 13.7008L1.42422 11.9673V15.5388L4.44391 13.7008Z" fill="#1C51BB"></path><path d="M4.44391 17.2728L1.42422 15.4838V19.0555L4.44391 17.2728Z" fill="#19389E"></path><path d="M1.42422 19.0499L4.44391 20.839V17.2672L1.42422 19.0499Z" fill="#1945AC"></path><path d="M4.44391 10.0775L1.42422 8.34375V11.971L4.44391 10.0775Z" fill="#1755C1"></path><path d="M13.4955 19.0559L16.5152 20.8449V17.2734L13.4955 19.0559Z" fill="#1F4FB2"></path><path d="M10.4675 2.98632L13.4872 4.77532V1.20361L10.4675 2.98632Z" fill="#165CC8"></path><path d="M10.4675 6.55641L13.4872 8.34542V4.77368L10.4675 6.55641Z" fill="#1A5ACB"></path><path d="M13.4798 4.8108L16.4995 6.59981V3.02808L13.4798 4.8108Z" fill="#196BD2"></path><path style="mix-blend-mode:multiply" opacity="0.15" d="M12.0103 22.4169C17.7403 22.4169 22.3853 17.7718 22.3853 12.0419C22.3853 6.31193 17.7403 1.66687 12.0103 1.66687C6.28036 1.66687 1.63534 6.31193 1.63534 12.0419C1.63534 17.7718 6.28036 22.4169 12.0103 22.4169Z" fill="url(#paint0_radial_1219_1473)"></path></g><path d="M17.6848 8.03027L15.9123 9.561C15.9123 9.561 14.6625 7.19431 11.9743 7.39565C9.28615 7.59703 7.55896 9.92847 7.84105 12.3854C8.12309 14.8426 9.68907 15.7439 9.68907 15.7439C9.68907 15.7439 11.8038 17.476 14.3618 15.9856C14.3618 15.9856 15.389 15.4217 16.1744 14.1931L17.9468 15.5827C17.9468 15.5827 15.9931 18.9461 11.8845 18.7044C11.8845 18.7044 7.29253 18.7044 5.7618 13.8907C5.7618 13.8907 5.09709 11.3934 6.00351 9.4196C6.00351 9.4196 7.44744 5.49209 12.0023 5.29075C12.0023 5.29075 15.3086 4.96854 17.685 8.02979L17.6848 8.03027Z" fill="white"></path><defs><radialGradient id="paint0_radial_1219_1473" cx="0" cy="0" r="1" gradientUnits="userSpaceOnUse" gradientTransform="translate(12.0103 12.0419) scale(12.9192 12.9192)"><stop offset="0.56" stop-color="white" stop-opacity="0"></stop><stop offset="0.61" stop-color="#FAFAFD" stop-opacity="0.02"></stop><stop offset="0.64" stop-color="#EBECF6" stop-opacity="0.08"></stop><stop offset="0.67" stop-color="#D1D5EC" stop-opacity="0.19"></stop><stop offset="0.7" stop-color="#AEB5DE" stop-opacity="0.34"></stop><stop offset="0.73" stop-color="#808BCB" stop-opacity="0.53"></stop><stop offset="0.75" stop-color="#4858B4" stop-opacity="0.76"></stop><stop offset="0.78" stop-color="#10259E"></stop></radialGradient></defs></svg>