<svg width="1440" height="560" viewBox="0 0 1440 560" fill="none" xmlns="http://www.w3.org/2000/svg" role="img" aria-labelledby="title desc">
  <title id="title">Build Flow</title>
  <desc id="desc">A complete launch flow from buying a server to submitting ICP filing.</desc>
  <defs>
    <linearGradient id="bg" x1="160" y1="44" x2="1253" y2="516" gradientUnits="userSpaceOnUse">
      <stop stop-color="#122736"/>
      <stop offset="0.5" stop-color="#13263A"/>
      <stop offset="1" stop-color="#201F35"/>
    </linearGradient>
    <radialGradient id="glowA" cx="0" cy="0" r="1" gradientUnits="userSpaceOnUse" gradientTransform="translate(320 156) rotate(90) scale(160 280)">
      <stop stop-color="#58C4FF" stop-opacity="0.18"/>
      <stop offset="1" stop-color="#58C4FF" stop-opacity="0"/>
    </radialGradient>
    <radialGradient id="glowB" cx="0" cy="0" r="1" gradientUnits="userSpaceOnUse" gradientTransform="translate(1120 128) rotate(90) scale(180 320)">
      <stop stop-color="#A78BFA" stop-opacity="0.18"/>
      <stop offset="1" stop-color="#A78BFA" stop-opacity="0"/>
    </radialGradient>
    <linearGradient id="route" x1="200" y1="0" x2="1240" y2="0" gradientUnits="userSpaceOnUse">
      <stop stop-color="#56C6FF"/>
      <stop offset="0.55" stop-color="#8FBF72"/>
      <stop offset="1" stop-color="#A78BFA"/>
    </linearGradient>
    <filter id="shadow" x="0" y="0" width="1440" height="560" filterUnits="userSpaceOnUse" color-interpolation-filters="sRGB">
      <feDropShadow dx="0" dy="24" stdDeviation="24" flood-color="#000000" flood-opacity="0.22"/>
    </filter>
  </defs>

  <g filter="url(#shadow)">
    <rect x="24" y="24" width="1392" height="512" rx="34" fill="url(#bg)"/>
    <rect x="24.75" y="24.75" width="1390.5" height="510.5" rx="33.25" stroke="#2F4254" stroke-opacity="0.75" stroke-width="1.5"/>
  </g>

  <rect x="24" y="24" width="1392" height="512" rx="34" fill="url(#glowA)"/>
  <rect x="24" y="24" width="1392" height="512" rx="34" fill="url(#glowB)"/>

  <g opacity="0.26">
    <path d="M164 108H1276" stroke="#FFFFFF" stroke-opacity="0.08"/>
    <path d="M164 166H1276" stroke="#FFFFFF" stroke-opacity="0.06"/>
    <path d="M164 224H1276" stroke="#FFFFFF" stroke-opacity="0.06"/>
    <path d="M164 282H1276" stroke="#FFFFFF" stroke-opacity="0.06"/>
    <path d="M164 340H1276" stroke="#FFFFFF" stroke-opacity="0.06"/>
    <path d="M164 398H1276" stroke="#FFFFFF" stroke-opacity="0.06"/>
    <path d="M164 456H1276" stroke="#FFFFFF" stroke-opacity="0.08"/>
    <path d="M220 88V472" stroke="#FFFFFF" stroke-opacity="0.05"/>
    <path d="M388 88V472" stroke="#FFFFFF" stroke-opacity="0.05"/>
    <path d="M556 88V472" stroke="#FFFFFF" stroke-opacity="0.05"/>
    <path d="M724 88V472" stroke="#FFFFFF" stroke-opacity="0.05"/>
    <path d="M892 88V472" stroke="#FFFFFF" stroke-opacity="0.05"/>
    <path d="M1060 88V472" stroke="#FFFFFF" stroke-opacity="0.05"/>
    <path d="M1228 88V472" stroke="#FFFFFF" stroke-opacity="0.05"/>
  </g>

  <text x="92" y="78" fill="#C7D0CA" fill-opacity="0.82" font-family="Inter, SF Pro Display, Arial, sans-serif" font-size="20" font-weight="700" letter-spacing="2">SETUP</text>
  <text x="1268" y="78" text-anchor="end" fill="#C7D0CA" fill-opacity="0.82" font-family="Inter, SF Pro Display, Arial, sans-serif" font-size="20" font-weight="700" letter-spacing="2">GO LIVE</text>

  <path d="M176 174H1110C1158 174 1190 174 1210 190C1234 209 1238 242 1238 274C1238 308 1230 340 1210 358C1190 374 1158 374 1110 374H176" stroke="url(#route)" stroke-width="6" stroke-linecap="round" stroke-linejoin="round"/>
  <circle cx="176" cy="174" r="8" fill="#56C6FF"/>
  <circle cx="1238" cy="274" r="8" fill="#8FBF72"/>
  <circle cx="176" cy="374" r="8" fill="#A6C989"/>

  <g font-family="Inter, SF Pro Display, Arial, sans-serif">
    <g transform="translate(104,122)">
      <rect width="184" height="96" rx="24" fill="#102534" stroke="#35506A"/>
      <text x="24" y="30" fill="#9AD3AA" font-size="22" font-weight="800">01</text>
      <text x="24" y="66" fill="#F2F1E8" font-size="20" font-weight="800">Buy CVM</text>
    </g>
    <g transform="translate(304,122)">
      <rect width="184" height="96" rx="24" fill="#102534" stroke="#35506A"/>
      <text x="24" y="30" fill="#9AD3AA" font-size="22" font-weight="800">02</text>
      <text x="24" y="66" fill="#F2F1E8" font-size="20" font-weight="800">Buy domain</text>
    </g>
    <g transform="translate(504,122)">
      <rect width="184" height="96" rx="24" fill="#102534" stroke="#35506A"/>
      <text x="24" y="30" fill="#9AD3AA" font-size="22" font-weight="800">03</text>
      <text x="24" y="66" fill="#F2F1E8" font-size="20" font-weight="800">Add A record</text>
    </g>
    <g transform="translate(704,122)">
      <rect width="184" height="96" rx="24" fill="#102534" stroke="#35506A"/>
      <text x="24" y="30" fill="#9AD3AA" font-size="22" font-weight="800">04</text>
      <text x="24" y="66" fill="#F2F1E8" font-size="20" font-weight="800">Change DNS</text>
    </g>
    <g transform="translate(904,122)">
      <rect width="184" height="96" rx="24" fill="#102534" stroke="#35506A"/>
      <text x="24" y="30" fill="#9AD3AA" font-size="22" font-weight="800">05</text>
      <text x="24" y="66" fill="#F2F1E8" font-size="20" font-weight="800">Open ports</text>
    </g>

    <g transform="translate(904,322)">
      <rect width="184" height="96" rx="24" fill="#13281C" stroke="#4D6A57"/>
      <text x="24" y="30" fill="#9AD3AA" font-size="22" font-weight="800">06</text>
      <text x="24" y="66" fill="#F2F1E8" font-size="20" font-weight="800">Install Nginx</text>
    </g>
    <g transform="translate(704,322)">
      <rect width="184" height="96" rx="24" fill="#13281C" stroke="#4D6A57"/>
      <text x="24" y="30" fill="#9AD3AA" font-size="22" font-weight="800">07</text>
      <text x="24" y="66" fill="#F2F1E8" font-size="20" font-weight="800">Deploy site</text>
    </g>
    <g transform="translate(504,322)">
      <rect width="184" height="96" rx="24" fill="#13281C" stroke="#4D6A57"/>
      <text x="24" y="30" fill="#9AD3AA" font-size="22" font-weight="800">08</text>
      <text x="24" y="66" fill="#F2F1E8" font-size="20" font-weight="800">Enable SSL</text>
    </g>
    <g transform="translate(304,322)">
      <rect width="184" height="96" rx="24" fill="#13281C" stroke="#4D6A57"/>
      <text x="24" y="30" fill="#9AD3AA" font-size="22" font-weight="800">09</text>
      <text x="24" y="66" fill="#F2F1E8" font-size="20" font-weight="800">Submit filing</text>
    </g>
    <g transform="translate(104,322)">
      <rect width="184" height="96" rx="24" fill="#203628" stroke="#6C8F63"/>
      <text x="24" y="30" fill="#B7D798" font-size="22" font-weight="800">10</text>
      <text x="24" y="66" fill="#F2F1E8" font-size="20" font-weight="800">Done</text>
    </g>
  </g>
</svg>
